<svg width="32" height="32" fill="none" xmlns="http://www.w3.org/2000/svg"><path d="M0 10c0-4.714 0-7.071 1.464-8.536C2.93 0 5.286 0 10 0h12c4.714 0 7.071 0 8.535 1.464C32 2.93 32 5.286 32 10v12c0 4.714 0 7.071-1.465 8.535C29.072 32 26.714 32 22 32H10c-4.714 0-7.071 0-8.536-1.465C0 29.072 0 26.714 0 22V10Z" fill="#F5F7FA"/><path d="M20.6 13.222c-.367.734-.55 1.659-.55 2.772 0 1.596.384 2.785 1.153 3.565.77.77 1.924 1.154 3.462 1.154.609 0 1.229-.046 1.86-.138.632-.08 1.194-.19 1.688-.327l-.43-2.239c-.3.058-.586.11-.862.155a10.14 10.14 0 0 1-1.636.138c-.482 0-.901-.086-1.257-.258a1.882 1.882 0 0 1-.792-.793c-.173-.355-.259-.803-.259-1.343 0-.562.08-1.022.241-1.377.173-.368.425-.638.758-.81.345-.184.764-.276 1.257-.276.253 0 .511.012.775.035.264.023.534.052.81.086.275.034.55.08.826.138l.397-2.342a6.31 6.31 0 0 0-.93-.19 10.433 10.433 0 0 0-1.085-.12A11.783 11.783 0 0 0 24.923 11c-1.056 0-1.946.19-2.669.568a3.715 3.715 0 0 0-1.653 1.654ZM10.97 11.138c.175-.058.361-.098.56-.12l.973 2.697a5.802 5.802 0 0 0-.48-.073 2.883 2.883 0 0 0-1.485.104c-.31.091-.644.264-1.001.517v6.302H6.723v-9.392h2.555v1.087c.322-.299.616-.54.88-.725.265-.184.536-.316.812-.397Z" fill="#0B0C12"/><path d="M20.368 13.091c-.388.771-.583 1.74-.583 2.91 0 .216.007.425.02.628l-1.398 3.936h-3.212L11.752 11h2.994l2.141 7.13 1.882-6.975 2.97.035-.18.504a3.93 3.93 0 0 0-1.191 1.397ZM3.346 18.098c-.23.242-.346.617-.346 1.126 0 .496.115.871.346 1.125.243.243.641.364 1.195.364.566 0 .964-.121 1.195-.364.243-.254.364-.629.364-1.125 0-.509-.121-.884-.364-1.126-.23-.255-.629-.381-1.195-.381-.554 0-.952.127-1.195.38Z" fill="#0B0C12"/></svg>